<?xml version="1.0" encoding="UTF-8" standalone="no"?>
<!-- Created with Inkscape (http://www.inkscape.org/) -->

<svg
   version="1.1"
   id="svg1"
   width="584"
   height="282.56"
   viewBox="0 0 584 282.56"
   sodipodi:docname="Pipeline.pdf"
   xmlns:inkscape="http://www.inkscape.org/namespaces/inkscape"
   xmlns:sodipodi="http://sodipodi.sourceforge.net/DTD/sodipodi-0.dtd"
   xmlns="http://www.w3.org/2000/svg"
   xmlns:svg="http://www.w3.org/2000/svg">
  <defs
     id="defs1">
    <clipPath
       clipPathUnits="userSpaceOnUse"
       id="clipPath2">
      <path
         d="m 81.25,37.5 h 1662.5 V 843.75 H 81.25 Z"
         transform="matrix(0.35237096,0,0,0.35237096,928.25452,304.68494)"
         clip-rule="evenodd"
         id="path2" />
    </clipPath>
    <clipPath
       clipPathUnits="userSpaceOnUse"
       id="clipPath4">
      <path
         d="m 81.25,37.5 h 1662.5 V 843.75 H 81.25 Z"
         transform="matrix(0.35237096,0,0,0.35237096,928.25452,304.68494)"
         clip-rule="evenodd"
         id="path4" />
    </clipPath>
    <clipPath
       clipPathUnits="userSpaceOnUse"
       id="clipPath6">
      <path
         d="m 81.25,37.5 h 1662.5 V 843.75 H 81.25 Z"
         transform="matrix(0.35237096,0,0,0.35237096,928.25452,304.68494)"
         clip-rule="evenodd"
         id="path6" />
    </clipPath>
    <clipPath
       clipPathUnits="userSpaceOnUse"
       id="clipPath8">
      <path
         d="m 81.25,37.5 h 1662.5 V 843.75 H 81.25 Z"
         transform="matrix(0.35237096,0,0,0.35237096,928.25452,304.68494)"
         clip-rule="evenodd"
         id="path8" />
    </clipPath>
    <clipPath
       clipPathUnits="userSpaceOnUse"
       id="clipPath10">
      <path
         d="m 81.25,37.5 h 1662.5 V 843.75 H 81.25 Z"
         transform="matrix(0.35237096,0,0,0.35237096,928.25452,304.68494)"
         clip-rule="evenodd"
         id="path10" />
    </clipPath>
    <clipPath
       clipPathUnits="userSpaceOnUse"
       id="clipPath12">
      <path
         d="m 81.25,37.5 h 1662.5 V 843.75 H 81.25 Z"
         transform="matrix(0.35237096,0,0,0.35237096,928.25452,304.68494)"
         clip-rule="evenodd"
         id="path12" />
    </clipPath>
    <clipPath
       clipPathUnits="userSpaceOnUse"
       id="clipPath14">
      <path
         d="m 81.25,37.5 h 1662.5 V 843.75 H 81.25 Z"
         transform="matrix(0.35237096,0,0,0.35237096,928.25452,304.68494)"
         clip-rule="evenodd"
         id="path14" />
    </clipPath>
    <clipPath
       clipPathUnits="userSpaceOnUse"
       id="clipPath15">
      <path
         d="m 81.25,37.5 h 1662.5 V 843.75 H 81.25 Z"
         transform="matrix(0.35237096,0,0,0.35237096,-41.886092,-56.815069)"
         clip-rule="evenodd"
         id="path15" />
    </clipPath>
    <clipPath
       clipPathUnits="userSpaceOnUse"
       id="clipPath16">
      <path
         d="m 81.25,37.5 h 1662.5 V 843.75 H 81.25 Z"
         transform="matrix(0.35237096,0,0,0.35237096,-55.229842,-71.815069)"
         clip-rule="evenodd"
         id="path16" />
    </clipPath>
    <clipPath
       clipPathUnits="userSpaceOnUse"
       id="clipPath17">
      <path
         d="m 81.25,37.5 h 1662.5 V 843.75 H 81.25 Z"
         transform="matrix(0.35237096,0,0,0.35237096,-47.214211,-123.81507)"
         clip-rule="evenodd"
         id="path17" />
    </clipPath>
    <clipPath
       clipPathUnits="userSpaceOnUse"
       id="clipPath19">
      <path
         d="m 81.25,37.5 h 1662.5 V 843.75 H 81.25 Z"
         transform="matrix(0.35237096,0,0,0.35237096,928.25452,304.68494)"
         clip-rule="evenodd"
         id="path19" />
    </clipPath>
    <clipPath
       clipPathUnits="userSpaceOnUse"
       id="clipPath20">
      <path
         d="m 81.25,37.5 h 1662.5 V 843.75 H 81.25 Z"
         transform="matrix(0.35237096,0,0,0.35237096,-357.21422,-56.815069)"
         clip-rule="evenodd"
         id="path20" />
    </clipPath>
    <clipPath
       clipPathUnits="userSpaceOnUse"
       id="clipPath21">
      <path
         d="m 81.25,37.5 h 1662.5 V 843.75 H 81.25 Z"
         transform="matrix(0.35237096,0,0,0.35237096,-362.21422,-71.815069)"
         clip-rule="evenodd"
         id="path21" />
    </clipPath>
    <clipPath
       clipPathUnits="userSpaceOnUse"
       id="clipPath22">
      <path
         d="m 81.25,37.5 h 1662.5 V 843.75 H 81.25 Z"
         transform="matrix(0.35237096,0,0,0.35237096,-338.87047,-123.81507)"
         clip-rule="evenodd"
         id="path22" />
    </clipPath>
    <clipPath
       clipPathUnits="userSpaceOnUse"
       id="clipPath24">
      <path
         d="m 81.25,37.5 h 1662.5 V 843.75 H 81.25 Z"
         transform="matrix(0.35237096,0,0,0.35237096,928.25452,304.68494)"
         clip-rule="evenodd"
         id="path24" />
    </clipPath>
    <clipPath
       clipPathUnits="userSpaceOnUse"
       id="clipPath26">
      <path
         d="m 81.25,37.5 h 1662.5 V 843.75 H 81.25 Z"
         transform="matrix(0.35237096,0,0,0.35237096,928.25452,304.68494)"
         clip-rule="evenodd"
         id="path26" />
    </clipPath>
    <clipPath
       clipPathUnits="userSpaceOnUse"
       id="clipPath27">
      <path
         d="m 81.25,37.5 h 1662.5 V 843.75 H 81.25 Z"
         transform="matrix(0.35237096,0,0,0.35237096,-512.54234,-62.815069)"
         clip-rule="evenodd"
         id="path27" />
    </clipPath>
    <clipPath
       clipPathUnits="userSpaceOnUse"
       id="clipPath28">
      <path
         d="m 81.25,37.5 h 1662.5 V 843.75 H 81.25 Z"
         transform="matrix(0.35237096,0,0,0.35237096,-524.21421,-76.815069)"
         clip-rule="evenodd"
         id="path28" />
    </clipPath>
    <clipPath
       clipPathUnits="userSpaceOnUse"
       id="clipPath29">
      <path
         d="m 81.25,37.5 h 1662.5 V 843.75 H 81.25 Z"
         transform="matrix(0.35237096,0,0,0.35237096,-547.22985,-91.815069)"
         clip-rule="evenodd"
         id="path29" />
    </clipPath>
    <clipPath
       clipPathUnits="userSpaceOnUse"
       id="clipPath31">
      <path
         d="m 1513.3071,288.94281 h 158.9234 v 52.24609 h -158.9234 z"
         transform="matrix(0.92091516,0,0,0.9179024,-1393.6275,-265.2222)"
         clip-rule="evenodd"
         id="path31" />
    </clipPath>
    <clipPath
       clipPathUnits="userSpaceOnUse"
       id="clipPath33">
      <path
         d="m 81.25,37.5 h 1662.5 V 843.75 H 81.25 Z"
         transform="matrix(0.35237096,0,0,0.35237096,928.25452,304.68494)"
         clip-rule="evenodd"
         id="path33" />
    </clipPath>
    <clipPath
       clipPathUnits="userSpaceOnUse"
       id="clipPath35">
      <path
         d="m 81.25,37.5 h 1662.5 V 843.75 H 81.25 Z"
         transform="matrix(0.35237096,0,0,0.35237096,928.25452,304.68494)"
         clip-rule="evenodd"
         id="path35" />
    </clipPath>
    <clipPath
       clipPathUnits="userSpaceOnUse"
       id="clipPath36">
      <path
         d="m 81.25,37.5 h 1662.5 V 843.75 H 81.25 Z"
         transform="matrix(0.35237096,0,0,0.35237096,-224.90171,-62.815069)"
         clip-rule="evenodd"
         id="path36" />
    </clipPath>
    <clipPath
       clipPathUnits="userSpaceOnUse"
       id="clipPath37">
      <path
         d="m 81.25,37.5 h 1662.5 V 843.75 H 81.25 Z"
         transform="matrix(0.35237096,0,0,0.35237096,-217.90171,-76.815069)"
         clip-rule="evenodd"
         id="path37" />
    </clipPath>
    <clipPath
       clipPathUnits="userSpaceOnUse"
       id="clipPath38">
      <path
         d="m 81.25,37.5 h 1662.5 V 843.75 H 81.25 Z"
         transform="matrix(0.35237096,0,0,0.35237096,-217.55796,-91.815069)"
         clip-rule="evenodd"
         id="path38" />
    </clipPath>
    <clipPath
       clipPathUnits="userSpaceOnUse"
       id="clipPath40">
      <path
         d="m 81.25,37.5 h 1662.5 V 843.75 H 81.25 Z"
         transform="matrix(0.35237096,0,0,0.35237096,928.25452,304.68494)"
         clip-rule="evenodd"
         id="path40" />
    </clipPath>
    <clipPath
       clipPathUnits="userSpaceOnUse"
       id="clipPath41">
      <path
         d="m 81.25,37.5 h 1662.5 V 843.75 H 81.25 Z"
         transform="matrix(0.35237096,0,0,0.35237096,-218.55797,-112.81507)"
         clip-rule="evenodd"
         id="path41" />
    </clipPath>
    <clipPath
       clipPathUnits="userSpaceOnUse"
       id="clipPath42">
      <path
         d="m 81.25,37.5 h 1662.5 V 843.75 H 81.25 Z"
         transform="matrix(0.35237096,0,0,0.35237096,-224.8861,-127.81507)"
         clip-rule="evenodd"
         id="path42" />
    </clipPath>
    <clipPath
       clipPathUnits="userSpaceOnUse"
       id="clipPath44">
      <path
         d="m 81.25,37.5 h 1662.5 V 843.75 H 81.25 Z"
         transform="matrix(0.35237096,0,0,0.35237096,928.25452,304.68494)"
         clip-rule="evenodd"
         id="path44" />
    </clipPath>
    <clipPath
       clipPathUnits="userSpaceOnUse"
       id="clipPath45">
      <path
         d="m 81.25,37.5 h 1662.5 V 843.75 H 81.25 Z"
         transform="matrix(0.35237096,0,0,0.35237096,-366.55796,-216.81507)"
         clip-rule="evenodd"
         id="path45" />
    </clipPath>
    <clipPath
       clipPathUnits="userSpaceOnUse"
       id="clipPath46">
      <path
         d="m 81.25,37.5 h 1662.5 V 843.75 H 81.25 Z"
         transform="matrix(0.35237096,0,0,0.35237096,-376.90171,-231.81506)"
         clip-rule="evenodd"
         id="path46" />
    </clipPath>
    <clipPath
       clipPathUnits="userSpaceOnUse"
       id="clipPath47">
      <path
         d="m 81.25,37.5 h 1662.5 V 843.75 H 81.25 Z"
         transform="matrix(0.35237096,0,0,0.35237096,-350.54235,-283.81507)"
         clip-rule="evenodd"
         id="path47" />
    </clipPath>
    <clipPath
       clipPathUnits="userSpaceOnUse"
       id="clipPath49">
      <path
         d="m 81.25,37.5 h 1662.5 V 843.75 H 81.25 Z"
         transform="matrix(0.35237096,0,0,0.35237096,928.25452,304.68494)"
         clip-rule="evenodd"
         id="path49" />
    </clipPath>
    <clipPath
       clipPathUnits="userSpaceOnUse"
       id="clipPath51">
      <path
         d="m 81.25,37.5 h 1662.5 V 843.75 H 81.25 Z"
         transform="matrix(0.35237096,0,0,0.35237096,928.25452,304.68494)"
         clip-rule="evenodd"
         id="path51" />
    </clipPath>
    <clipPath
       clipPathUnits="userSpaceOnUse"
       id="clipPath53">
      <path
         d="m 81.25,37.5 h 1662.5 V 843.75 H 81.25 Z"
         transform="matrix(0.35237096,0,0,0.35237096,928.25452,304.68494)"
         clip-rule="evenodd"
         id="path53" />
    </clipPath>
    <clipPath
       clipPathUnits="userSpaceOnUse"
       id="clipPath55">
      <path
         d="m 81.25,37.5 h 1662.5 V 843.75 H 81.25 Z"
         transform="matrix(0.35237096,0,0,0.35237096,928.25452,304.68494)"
         clip-rule="evenodd"
         id="path55" />
    </clipPath>
    <clipPath
       clipPathUnits="userSpaceOnUse"
       id="clipPath57">
      <path
         d="m 81.25,37.5 h 1662.5 V 843.75 H 81.25 Z"
         transform="matrix(0.35237096,0,0,0.35237096,928.25452,304.68494)"
         clip-rule="evenodd"
         id="path57" />
    </clipPath>
    <clipPath
       clipPathUnits="userSpaceOnUse"
       id="clipPath59">
      <path
         d="m 81.25,37.5 h 1662.5 V 843.75 H 81.25 Z"
         transform="matrix(0.35237096,0,0,0.35237096,928.25452,304.68494)"
         clip-rule="evenodd"
         id="path59" />
    </clipPath>
    <clipPath
       clipPathUnits="userSpaceOnUse"
       id="clipPath60">
      <path
         d="m 81.25,37.5 h 1662.5 V 843.75 H 81.25 Z"
         transform="matrix(0.35237096,0,0,0.35237096,-542.22984,-222.81507)"
         clip-rule="evenodd"
         id="path60" />
    </clipPath>
    <clipPath
       clipPathUnits="userSpaceOnUse"
       id="clipPath61">
      <path
         d="m 81.25,37.5 h 1662.5 V 843.75 H 81.25 Z"
         transform="matrix(0.35237096,0,0,0.35237096,-535.22007,-236.81507)"
         clip-rule="evenodd"
         id="path61" />
    </clipPath>
    <clipPath
       clipPathUnits="userSpaceOnUse"
       id="clipPath62">
      <path
         d="m 81.25,37.5 h 1662.5 V 843.75 H 81.25 Z"
         transform="matrix(0.35237096,0,0,0.35237096,-540.55797,-251.81507)"
         clip-rule="evenodd"
         id="path62" />
    </clipPath>
    <clipPath
       clipPathUnits="userSpaceOnUse"
       id="clipPath64">
      <path
         d="m 1513.3071,740.17181 h 158.9234 v 52.24603 h -158.9234 z"
         transform="matrix(0.92091516,0,0,0.9179039,-1393.6275,-679.40748)"
         clip-rule="evenodd"
         id="path64" />
    </clipPath>
  </defs>
  <sodipodi:namedview
     id="namedview1"
     pagecolor="#ffffff"
     bordercolor="#000000"
     borderopacity="0.25"
     inkscape:showpageshadow="2"
     inkscape:pageopacity="0.0"
     inkscape:pagecheckerboard="0"
     inkscape:deskcolor="#d1d1d1">
    <inkscape:page
       x="0"
       y="0"
       inkscape:label="3"
       id="page1"
       width="584"
       height="282.56"
       margin="0"
       bleed="0" />
  </sodipodi:namedview>
  <g
     id="g1"
     inkscape:groupmode="layer"
     inkscape:label="3">
    <path
       id="path1"
       d="m 1049,365 h 80.63"
       style="fill:none;stroke:#000000;stroke-width:1;stroke-linecap:butt;stroke-linejoin:miter;stroke-miterlimit:10;stroke-dasharray:none;stroke-opacity:1"
       transform="matrix(0.90813382,0,0,0.90813382,-842.97932,-276.6947)"
       clip-path="url(#clipPath2)" />
    <path
       id="path3"
       d="m 1134.88,365 -7,3.5 1.75,-3.5 -1.75,-3.5 z"
       style="fill:#000000;fill-opacity:1;fill-rule:nonzero;stroke:#000000;stroke-width:1;stroke-linecap:butt;stroke-linejoin:miter;stroke-miterlimit:10;stroke-dasharray:none;stroke-opacity:1"
       transform="matrix(0.90813382,0,0,0.90813382,-842.97932,-276.6947)"
       clip-path="url(#clipPath4)" />
    <path
       id="path5"
       d="m 1196,365 h 80.63"
       style="fill:none;stroke:#000000;stroke-width:1;stroke-linecap:butt;stroke-linejoin:miter;stroke-miterlimit:10;stroke-dasharray:none;stroke-opacity:1"
       transform="matrix(0.90813382,0,0,0.90813382,-842.97932,-276.6947)"
       clip-path="url(#clipPath6)" />
    <path
       id="path7"
       d="m 1281.88,365 -7,3.5 1.75,-3.5 -1.75,-3.5 z"
       style="fill:#000000;fill-opacity:1;fill-rule:nonzero;stroke:#000000;stroke-width:1;stroke-linecap:butt;stroke-linejoin:miter;stroke-miterlimit:10;stroke-dasharray:none;stroke-opacity:1"
       transform="matrix(0.90813382,0,0,0.90813382,-842.97932,-276.6947)"
       clip-path="url(#clipPath8)" />
    <path
       id="path9"
       d="m 1373,365 h 60.63"
       style="fill:none;stroke:#000000;stroke-width:1;stroke-linecap:butt;stroke-linejoin:miter;stroke-miterlimit:10;stroke-dasharray:none;stroke-opacity:1"
       transform="matrix(0.90813382,0,0,0.90813382,-842.97932,-276.6947)"
       clip-path="url(#clipPath10)" />
    <path
       id="path11"
       d="m 1438.88,365 -7,3.5 1.75,-3.5 -1.75,-3.5 z"
       style="fill:#000000;fill-opacity:1;fill-rule:nonzero;stroke:#000000;stroke-width:1;stroke-linecap:butt;stroke-linejoin:miter;stroke-miterlimit:10;stroke-dasharray:none;stroke-opacity:1"
       transform="matrix(0.90813382,0,0,0.90813382,-842.97932,-276.6947)"
       clip-path="url(#clipPath12)" />
    <path
       id="path13"
       d="m 972.5,320 h 63 c 0.8864,0 1.7643,0.0865 2.6337,0.2594 0.8692,0.17294 1.7135,0.42899 2.5324,0.76819 0.819,0.3392 1.5971,0.75503 2.3341,1.2475 0.737,0.49249 1.4189,1.05215 2.0457,1.67895 0.6268,0.62677 1.1864,1.30869 1.6788,2.04572 0.4925,0.73703 0.9082,1.51504 1.2475,2.33398 0.3392,0.81894 0.5953,1.66312 0.7682,2.5325 0.1731,0.86942 0.2596,1.74732 0.2596,2.63376 v 63 c 0,0.88641 -0.086,1.76431 -0.2596,2.6337 -0.1729,0.86938 -0.429,1.71356 -0.7682,2.5325 -0.3393,0.81894 -0.755,1.59692 -1.2475,2.33395 -0.4924,0.73706 -1.052,1.41898 -1.6788,2.04578 -0.6268,0.6268 -1.3087,1.18643 -2.0458,1.67889 -0.7369,0.49247 -1.515,0.9083 -2.334,1.24753 -0.8189,0.33923 -1.6632,0.59531 -2.5324,0.76825 -0.8694,0.17291 -1.7473,0.25937 -2.6337,0.2594 h -63 c -0.88641,-3e-5 -1.76434,-0.0865 -2.63379,-0.2594 -0.86938,-0.17294 -1.71356,-0.42902 -2.53247,-0.76825 -0.81897,-0.33923 -1.59698,-0.7551 -2.33398,-1.24756 -0.737,-0.49246 -1.41895,-1.05206 -2.04572,-1.67886 -0.62683,-0.6268 -1.18646,-1.30872 -1.67895,-2.04578 -0.49244,-0.73703 -0.90827,-1.51501 -1.2475,-2.33395 -0.33924,-0.81894 -0.59528,-1.66312 -0.76819,-2.5325 -0.17297,-0.86939 -0.25946,-1.74729 -0.2594,-2.6337 v -63 c -6e-5,-0.88644 0.0864,-1.76434 0.25934,-2.63376 0.17291,-0.86938 0.42901,-1.71356 0.76825,-2.5325 0.33923,-0.81894 0.75506,-1.59695 1.2475,-2.33398 0.49249,-0.73703 1.05212,-1.41895 1.67895,-2.04572 0.62677,-0.6268 1.30872,-1.18646 2.04572,-1.67895 0.737,-0.49247 1.51501,-0.9083 2.33398,-1.2475 0.81891,-0.3392 1.66309,-0.59525 2.53247,-0.76819 C 970.73566,320.08646 971.61359,320 972.5,320 Z"
       style="fill:#ffffff;fill-opacity:1;fill-rule:nonzero;stroke:#000000;stroke-width:1;stroke-linecap:butt;stroke-linejoin:miter;stroke-miterlimit:10;stroke-dasharray:none;stroke-opacity:1"
       transform="matrix(0.90813382,0,0,0.90813382,-842.97932,-276.6947)"
       clip-path="url(#clipPath14)" />
    <g
       id="g14" />
    <text
       id="text14"
       xml:space="preserve"
       transform="matrix(0.90813382,0,0,0.90813382,38.038177,51.595686)"
       clip-path="url(#clipPath15)"><tspan
         style="font-variant:normal;font-weight:normal;font-size:12px;font-family:Arial;writing-mode:lr-tb;fill:#000000;fill-opacity:1;fill-rule:nonzero;stroke:none"
         x="0 8.6660156 15.339844 22.013672 24.679688 28.013672 30.679688 40.675781 47.349609 54.023438 60.697266"
         y="0"
         sodipodi:role="line"
         id="tspan14">Real images</tspan></text>
    <g
       id="g15" />
    <text
       id="text15"
       xml:space="preserve"
       transform="matrix(0.90813382,0,0,0.90813382,50.156087,65.217693)"
       clip-path="url(#clipPath16)"><tspan
         style="font-variant:normal;font-weight:normal;font-size:12px;font-family:Arial;writing-mode:lr-tb;fill:#000000;fill-opacity:1;fill-rule:nonzero;stroke:none"
         x="0 6 12.673828 19.347656 22.681641 29.355469 33.351562"
         y="0"
         sodipodi:role="line"
         id="tspan15">capture</tspan></text>
    <g
       id="g16" />
    <text
       id="text16"
       xml:space="preserve"
       transform="matrix(0.90813382,0,0,0.90813382,42.876822,112.44065)"
       clip-path="url(#clipPath17)"><tspan
         style="font-variant:normal;font-weight:normal;font-size:12px;font-family:Arial;writing-mode:lr-tb;fill:#000000;fill-opacity:1;fill-rule:nonzero;stroke:none"
         x="0 6 12.673828 19.347656 22.681641 29.355469 33.351562 40.025391 43.359375 50.033203"
         y="0"
         sodipodi:role="line"
         id="tspan16">capture.py</tspan></text>
    <path
       id="path18"
       d="m 1296.5,320 h 63 c 0.8864,0 1.7643,0.0865 2.6335,0.2594 0.8694,0.17294 1.7137,0.42899 2.5326,0.76819 0.819,0.3392 1.597,0.75503 2.3339,1.2475 0.7371,0.49249 1.4191,1.05215 2.0459,1.67895 0.6268,0.62677 1.1864,1.30869 1.679,2.04572 0.4924,0.73703 0.9083,1.51504 1.2475,2.33398 0.3393,0.81894 0.5954,1.66312 0.7682,2.5325 0.173,0.86942 0.2594,1.74732 0.2594,2.63376 v 63 c 0,0.88641 -0.086,1.76431 -0.2594,2.6337 -0.1728,0.86938 -0.4289,1.71356 -0.7682,2.5325 -0.3392,0.81894 -0.7551,1.59692 -1.2475,2.33395 -0.4926,0.73706 -1.0522,1.41898 -1.679,2.04578 -0.6268,0.6268 -1.3088,1.18643 -2.0459,1.67889 -0.7369,0.49247 -1.5149,0.9083 -2.3339,1.24753 -0.8189,0.33923 -1.6632,0.59531 -2.5326,0.76825 -0.8692,0.17291 -1.7471,0.25937 -2.6335,0.2594 h -63 c -0.8865,-3e-5 -1.7644,-0.0865 -2.6338,-0.2594 -0.8694,-0.17294 -1.7136,-0.42902 -2.5326,-0.76825 -0.8189,-0.33923 -1.5969,-0.7551 -2.3338,-1.24756 -0.737,-0.49246 -1.419,-1.05206 -2.0458,-1.67886 -0.6267,-0.6268 -1.1864,-1.30872 -1.679,-2.04578 -0.4925,-0.73703 -0.9083,-1.51501 -1.2475,-2.33395 -0.3393,-0.81894 -0.5952,-1.66312 -0.7682,-2.5325 -0.173,-0.86939 -0.2594,-1.74729 -0.2593,-2.6337 v -63 c -10e-5,-0.88644 0.086,-1.76434 0.2593,-2.63376 0.173,-0.86938 0.4289,-1.71356 0.7682,-2.5325 0.3392,-0.81894 0.755,-1.59695 1.2475,-2.33398 0.4926,-0.73703 1.0523,-1.41895 1.679,-2.04572 0.6268,-0.6268 1.3088,-1.18646 2.0458,-1.67895 0.7369,-0.49247 1.5149,-0.9083 2.3338,-1.2475 0.819,-0.3392 1.6632,-0.59525 2.5326,-0.76819 0.8694,-0.17294 1.7473,-0.2594 2.6338,-0.2594 z"
       style="fill:#ffffff;fill-opacity:1;fill-rule:nonzero;stroke:#000000;stroke-width:1;stroke-linecap:butt;stroke-linejoin:miter;stroke-miterlimit:10;stroke-dasharray:none;stroke-opacity:1"
       transform="matrix(0.90813382,0,0,0.90813382,-842.97932,-276.6947)"
       clip-path="url(#clipPath19)" />
    <g
       id="g19" />
    <text
       id="text19"
       xml:space="preserve"
       transform="matrix(0.90813382,0,0,0.90813382,324.39831,51.595686)"
       clip-path="url(#clipPath20)"><tspan
         style="font-variant:normal;font-weight:normal;font-size:12px;font-family:Arial;writing-mode:lr-tb;fill:#000000;fill-opacity:1;fill-rule:nonzero;stroke:none"
         x="0 8.0039062 14.003906 17.337891 21.333984 28.007812 34.007812 37.341797 40.675781 44.009766 50.683594 57.357422 60.691406 67.365234 71.361328 78.035156"
         y="0"
         sodipodi:role="line"
         id="tspan19">Extract features</tspan></text>
    <g
       id="g20" />
    <text
       id="text20"
       xml:space="preserve"
       transform="matrix(0.90813382,0,0,0.90813382,328.93898,65.217693)"
       clip-path="url(#clipPath21)"><tspan
         style="font-variant:normal;font-weight:normal;font-size:12px;font-family:Arial;writing-mode:lr-tb;fill:#000000;fill-opacity:1;fill-rule:nonzero;stroke:none"
         x="0 6.6738281 13.347656 20.021484 23.355469 29.355469 36.029297 42.029297 48.703125 55.376953 58.042969 64.716797 68.050781"
         y="0"
         sodipodi:role="line"
         id="tspan20">and keypoints</tspan></text>
    <g
       id="g21" />
    <text
       id="text21"
       xml:space="preserve"
       transform="matrix(0.90813382,0,0,0.90813382,307.73973,112.44065)"
       clip-path="url(#clipPath22)"><tspan
         style="font-variant:normal;font-weight:normal;font-size:12px;font-family:Arial;writing-mode:lr-tb;fill:#000000;fill-opacity:1;fill-rule:nonzero;stroke:none"
         x="0 7.3300781 14.003906 20.677734 24.011719 30.685547 34.681641 41.355469 49.359375 55.359375 58.693359 62.689453 69.363281 75.363281 78.697266 85.371094 88.705078 92.039062 94.705078 101.37891 107.37891 114.05273"
         y="0"
         sodipodi:role="line"
         id="tspan21">FeatureExtractor.ipynb</tspan></text>
    <path
       id="path23"
       d="m 1440,337.5 c 0,-8.28 22.39,-15 50,-15 13.26,0 25.98,1.57999 35.36,4.39001 9.37,2.81998 14.64,6.62998 14.64,10.60999 v 55 c 0,8.28 -22.39,15 -50,15 -27.61,0 -50,-6.72 -50,-15 z"
       style="fill:#ffffff;fill-opacity:1;fill-rule:nonzero;stroke:#000000;stroke-width:1;stroke-linecap:butt;stroke-linejoin:miter;stroke-miterlimit:10;stroke-dasharray:none;stroke-opacity:1"
       transform="matrix(0.90813382,0,0,0.90813382,-842.97932,-276.6947)"
       clip-path="url(#clipPath24)" />
    <path
       id="path25"
       d="m 1540,337.5 c 0,8.28 -22.39,15 -50,15 -27.61,0 -50,-6.72 -50,-15"
       style="fill:none;stroke:#000000;stroke-width:1;stroke-linecap:butt;stroke-linejoin:miter;stroke-miterlimit:10;stroke-dasharray:none;stroke-opacity:1"
       transform="matrix(0.90813382,0,0,0.90813382,-842.97932,-276.6947)"
       clip-path="url(#clipPath26)" />
    <g
       id="g26" />
    <text
       id="text26"
       xml:space="preserve"
       transform="matrix(0.90813382,0,0,0.90813382,465.45703,57.044489)"
       clip-path="url(#clipPath27)"><tspan
         style="font-variant:normal;font-weight:normal;font-size:12px;font-family:Arial;writing-mode:lr-tb;fill:#000000;fill-opacity:1;fill-rule:nonzero;stroke:none"
         x="0 8.0039062 14.003906 17.337891 21.333984 28.007812 34.007812 37.341797 44.015625 50.689453 54.023438 57.357422 64.03125 70.705078 74.039062 80.712891 84.708984 91.382812"
         y="0"
         sodipodi:role="line"
         id="tspan26">Extracted features</tspan></text>
    <g
       id="g27" />
    <text
       id="text27"
       xml:space="preserve"
       transform="matrix(0.90813382,0,0,0.90813382,476.05665,69.758362)"
       clip-path="url(#clipPath28)"><tspan
         style="font-variant:normal;font-weight:normal;font-size:12px;font-family:Arial;writing-mode:lr-tb;fill:#000000;fill-opacity:1;fill-rule:nonzero;stroke:none"
         x="0 6.6738281 13.347656 20.021484 23.355469 29.355469 36.029297 42.029297 48.703125 55.376953 58.042969 64.716797 68.050781"
         y="0"
         sodipodi:role="line"
         id="tspan27">and keypoints</tspan></text>
    <g
       id="g28" />
    <text
       id="text28"
       xml:space="preserve"
       transform="matrix(0.90813382,0,0,0.90813382,496.95793,83.380369)"
       clip-path="url(#clipPath29)"><tspan
         style="font-variant:normal;font-weight:normal;font-size:12px;font-family:Arial;writing-mode:lr-tb;fill:#000000;fill-opacity:1;fill-rule:nonzero;stroke:none"
         x="0 3.9960938 7.9921875 14.666016 21.339844 24.005859"
         y="0"
         sodipodi:role="line"
         id="tspan28">(real)</tspan></text>
    <path
       id="path30"
       d="m 145.30099,18.875 c -0.705,-1.601999 -1.656,-2.997 -2.84599,-4.19 -1.18899,-1.187001 -2.584,-2.125 -4.188,-2.805001 -1.60401,-0.678 -3.30701,-1.02 -5.10201,-1.02 -1.848,0 -3.56399,0.342 -5.13899,1.02 -0.787,0.339 -1.529,0.74 -2.225,1.205 -0.70099,0.469 -1.357,1.003 -1.967,1.600001 -0.377,0.369999 -0.727,0.760999 -1.051,1.17 -0.363,0.457 -0.764,1.068 -0.992,1.438999 -0.281,0.455999 -0.957,1.861 -1.254,2.827999 0.041,-1.644001 0.281,-4.096001 1.254,-5.472 V 2.7680001 c 0,-0.776 -0.279,-1.431 -0.84,-1.96500001 C 120.396,0.26799998 119.75,0 119.021,0 118.244,0 117.591,0.26799998 117.052,0.80300003 116.521,1.337 116.251,1.9920001 116.251,2.7680001 V 13.337 c -1.117,-0.778 -2.322,-1.386 -3.605,-1.824 -1.28501,-0.436 -2.637,-0.654001 -4.045,-0.654001 -1.79901,0 -3.496,0.342 -5.1,1.020001 -1.605,0.679 -3,1.618 -4.195,2.805 -1.185997,1.194 -2.139,2.587999 -2.835999,4.190001 -0.053,0.12 -0.1,0.242 -0.150001,0.364 -0.047,-0.122 -0.094,-0.244 -0.146004,-0.364 -0.705002,-1.602 -1.655998,-2.997 -2.846001,-4.190001 -1.189003,-1.187 -2.585998,-2.125 -4.188003,-2.805 -1.603997,-0.678001 -3.306999,-1.020001 -5.101998,-1.020001 -1.847999,0 -3.564003,0.342 -5.139,1.020001 -1.583999,0.679 -2.978996,1.618 -4.191001,2.805 -1.212998,1.194 -2.164002,2.587999 -2.842003,4.190001 -0.049,0.114999 -0.092,0.229999 -0.137001,0.343999 -0.047,-0.114 -0.092,-0.229 -0.140999,-0.343999 -0.700997,-1.602 -1.650002,-2.997 -2.840004,-4.190001 -1.191002,-1.187 -2.587998,-2.125 -4.193001,-2.805 -1.604,-0.678001 -3.300999,-1.020001 -5.104,-1.020001 -1.841999,0 -3.556999,0.342 -5.137001,1.020001 -1.577999,0.679 -2.977001,1.618 -4.186001,2.805 -1.221001,1.194 -2.166,2.587999 -2.847999,4.190001 -0.043,0.106 -0.082,0.214 -0.125,0.319999 -0.043,-0.106001 -0.084,-0.214 -0.131001,-0.319999 -0.707001,-1.602 -1.655998,-2.997 -2.848,-4.190001 -1.187999,-1.187 -2.582,-2.125 -4.184001,-2.805 -1.605,-0.678001 -3.308999,-1.020001 -5.104001,-1.020001 -1.849998,0 -3.563999,0.342 -5.137001,1.020001 -1.466999,0.628 -2.764,1.488 -3.909999,2.552 V 13.99 c 0,-1.557 -1.262,-2.822001 -2.82,-2.822001 H 3.2460001 C 1.689,11.167999 0.42600012,12.433 0.42600012,13.99 c 0,1.559 1.26399998,2.819999 2.81999998,2.819999 H 18.787001 l -18.23000096,24.546 C 0.19499999,41.842999 0,42.432999 0,43.037998 v 1.841 c 0,1.557998 1.2639999,2.821998 2.822,2.821998 h 21.047001 c 1.488001,0 2.705,-1.152999 2.812001,-2.613998 0.931999,0.743 1.967001,1.363998 3.108999,1.848 1.604999,0.683998 3.299,1.020999 5.102001,1.020999 2.723,0 5.150002,-0.726001 7.286999,-2.187 1.727001,-1.175998 3.091999,-2.639 4.083999,-4.389 v 3.805001 c 0,0.777999 0.264,1.436 0.805001,1.967998 0.530998,0.536999 1.188999,0.803001 1.966999,0.803001 0.729999,0 1.368999,-0.265998 1.93,-0.803001 0.561001,-0.532001 0.838001,-1.188999 0.838001,-1.967998 V 35.306 h -0.01 c 0,-0.002 0.01,-0.013 0.01,-0.013 0,0 -6.137001,0 -6.911998,0 -0.580002,0 -1.109002,0.154 -1.565998,0.472 -0.463002,0.316002 -0.793,0.744 -0.981999,1.275002 l -0.452999,0.93 c -0.631,1.365002 -1.566002,2.443001 -2.808998,3.244 -1.237999,0.803001 -2.633,1.201 -4.188,1.201 -1.022999,0 -2.004001,-0.191002 -2.955,-0.578999 -0.941,-0.389999 -1.757999,-0.935001 -2.439001,-1.639999 -0.681999,-0.702999 -1.226999,-1.52 -1.641001,-2.443001 -0.409999,-0.924 -0.617,-1.893001 -0.617,-2.916 v -2.476002 h 17.715002 1.308998 5.539001 v -8.385 c 0,-1.015 0.191002,-1.99 0.582001,-2.912001 0.389,-0.922001 0.936001,-1.74 1.645001,-2.444 0.699001,-0.702999 1.514,-1.249001 2.440998,-1.641001 0.917999,-0.388 1.919998,-0.580999 2.981998,-0.580999 1.022999,0 2.009999,0.193001 2.954998,0.580999 0.945,0.393 1.762001,0.938 2.439003,1.641001 0.681999,0.704 1.224999,1.521 1.640999,2.444 0.412003,0.922001 0.621002,1.896 0.621002,2.912001 v 21.207998 c 0,0.778 0.265999,1.436001 0.799004,1.967999 0.535004,0.536998 1.191002,0.803001 1.971001,0.803001 0.728996,0 1.371002,-0.265999 1.933998,-0.803001 0.553001,-0.532002 0.833999,-1.189 0.833999,-1.967999 v -3.803001 c 0.587998,1.009998 1.282997,1.931999 2.099999,2.749 1.189003,1.188999 2.585998,2.124001 4.191002,2.804001 1.601997,0.683998 3.303001,1.021 5.101997,1.021 1.794998,0 3.498001,-0.337002 5.101997,-1.021 1.601998,-0.68 3.010003,-1.613998 4.226998,-2.804001 1.210998,-1.189998 2.162002,-2.589 2.842003,-4.188999 0.037,-0.095 0.074,-0.189999 0.109001,-0.285999 0.039,0.096 0.074,0.191002 0.112999,0.285999 0.678001,1.601002 1.625,2.999001 2.842003,4.188999 1.213001,1.188999 2.607001,2.124001 4.189001,2.804001 1.574,0.683998 3.293,1.021 5.139,1.021 1.795,0 3.5,-0.337002 5.10501,-1.021 1.59999,-0.68 2.994,-1.613998 4.18399,-2.804001 1.19101,-1.189998 2.141,-2.589 2.848,-4.188999 0.051,-0.119999 0.098,-0.238998 0.14601,-0.360001 0.049,0.120999 0.094,0.240002 0.146,0.360001 0.703,1.601002 1.652,2.999001 2.842,4.188999 1.18901,1.188999 2.586,2.124001 4.191,2.804001 1.60401,0.683998 3.303,1.021 5.10201,1.021 1.795,0 3.498,-0.337002 5.102,-1.021 1.60401,-0.68 3.01,-1.613998 4.22701,-2.804001 1.211,-1.189998 2.16,-2.589 2.84199,-4.188999 0.678,-1.605999 1.02001,-3.306 1.02001,-5.104 V 23.976998 C 146.355,22.181999 146.002,20.479 145.30099,18.875 Z M 7.0640001,42.060001 21.822001,22.186001 c -0.078,0.587 -0.121001,1.184 -0.121001,1.791 v 10.860001 c 0,1.799 0.350001,3.498001 1.059,5.104 0.327999,0.751999 0.719,1.458 1.156,2.118999 -0.016,0 -0.031,-9.99e-4 -0.047,-9.99e-4 H 7.0640011 Z M 42.541,26.816999 H 27.24 V 23.976 c 0,-1.015 0.188999,-1.99 0.58,-2.912001 0.391,-0.922001 0.936001,-1.74 1.645,-2.444 0.697001,-0.702999 1.516001,-1.249001 2.438,-1.641001 0.922001,-0.388 1.919998,-0.580999 2.990002,-0.580999 1.02,0 2.001998,0.193001 2.949001,0.580999 0.949001,0.393 1.764,0.938 2.441002,1.641001 0.681999,0.704 1.224998,1.521 1.640999,2.444 0.414001,0.922001 0.617,1.896 0.617,2.912001 v 2.840999 z m 49.147004,8.020003 c 0,1.022999 -0.189003,1.992 -0.582001,2.916 -0.389,0.924 -0.935997,1.740002 -1.637001,2.443001 -0.705002,0.705002 -1.523003,1.25 -2.445,1.639999 -0.919998,0.388001 -1.919998,0.578999 -2.984001,0.578999 -1.023003,0 -2.003998,-0.191002 -2.955002,-0.578999 -0.945,-0.389999 -1.758003,-0.935001 -2.439003,-1.639999 -0.681999,-0.702999 -1.228996,-1.52 -1.640999,-2.443001 -0.412002,-0.923 -0.616997,-1.893001 -0.616997,-2.916 V 23.977001 c 0,-1.014999 0.191002,-1.99 0.582001,-2.912 0.387001,-0.922001 0.933998,-1.74 1.639,-2.444001 0.700997,-0.702999 1.519997,-1.249 2.441002,-1.641 0.921997,-0.388001 1.919998,-0.581 2.989998,-0.581 1.017998,0 2.003998,0.193001 2.946999,0.581 0.950996,0.392999 1.763999,0.937999 2.443,1.641 0.680001,0.704001 1.223,1.521 1.640999,2.444001 0.412003,0.922 0.616997,1.895999 0.616997,2.912 v 10.860001 z m 24.563996,0 c 0,1.022999 -0.203,1.992 -0.617,2.916 -0.412,0.924 -0.961,1.740002 -1.641,2.443001 -0.68,0.705002 -1.49199,1.25 -2.443,1.639999 -0.943,0.388001 -1.93,0.578999 -2.949,0.578999 -1.07,0 -2.066,-0.191002 -2.98799,-0.578999 -0.92401,-0.389999 -1.74,-0.935001 -2.43901,-1.639999 -0.707,-0.702999 -1.252,-1.52 -1.643,-2.443001 -0.39099,-0.923 -0.58399,-1.893001 -0.58399,-2.916 V 23.977001 c 0,-1.014999 0.21099,-1.99 0.619,-2.912 0.416,-0.922001 0.961,-1.74 1.641,-2.444001 0.682,-0.702999 1.496,-1.249 2.439,-1.641 0.951,-0.388001 1.934,-0.581 2.955,-0.581 1.068,0 2.062,0.193001 2.986,0.581 0.92601,0.392999 1.738,0.937999 2.443,1.641 0.70301,0.704001 1.252,1.521 1.641,2.444001 0.389,0.922 0.58,1.895999 0.58,2.912 v 10.860001 z m 24.56399,0 c 0,1.022999 -0.19299,1.992 -0.58,2.916 -0.393,0.924 -0.93899,1.740002 -1.641,2.443001 -0.70501,0.705002 -1.523,1.25 -2.443,1.639999 -0.92199,0.388001 -1.92,0.578999 -2.98601,0.578999 -1.02099,0 -2.00399,-0.191002 -2.955,-0.578999 -0.94299,-0.389999 -1.75799,-0.935001 -2.438,-1.639999 -0.682,-0.702999 -1.23,-1.52 -1.643,-2.443001 -0.41299,-0.923 -0.619,-1.893001 -0.619,-2.916 V 23.977001 c 0,-1.014999 0.193,-1.99 0.584,-2.912 0.387,-0.922001 0.934,-1.74 1.639,-2.444001 0.703,-0.702999 1.518,-1.249 2.44099,-1.641 0.924,-0.388001 1.92,-0.581 2.99001,-0.581 1.02,0 2.004,0.193001 2.949,0.581 0.94901,0.392999 1.76401,0.937999 2.441,1.641 0.682,0.704001 1.225,1.521 1.643,2.444001 0.412,0.922 0.61701,1.895999 0.61701,2.912 v 10.860001 z"
       style="fill:#191919;fill-opacity:1;fill-rule:nonzero;stroke:none"
       transform="matrix(0.34748042,0,0,0.34862093,484.25826,92.462009)"
       clip-path="url(#clipPath31)" />
    <path
       id="path32"
       d="m 1136,340 c 0,-8.28 13.4301,-15 30,-15 7.96,0 15.59,1.57999 21.21,4.39001 5.63,2.81998 8.79,6.62998 8.79,10.60999 v 50 c 0,8.28 -13.43,15 -30,15 -16.5699,0 -30,-6.72 -30,-15 z"
       style="fill:#ffffff;fill-opacity:1;fill-rule:nonzero;stroke:#000000;stroke-width:1;stroke-linecap:butt;stroke-linejoin:miter;stroke-miterlimit:10;stroke-dasharray:none;stroke-opacity:1"
       transform="matrix(0.90813382,0,0,0.90813382,-842.97932,-276.6947)"
       clip-path="url(#clipPath33)" />
    <path
       id="path34"
       d="m 1196,340 c 0,8.28 -13.43,15 -30,15 -16.5699,0 -30,-6.72 -30,-15"
       style="fill:none;stroke:#000000;stroke-width:1;stroke-linecap:butt;stroke-linejoin:miter;stroke-miterlimit:10;stroke-dasharray:none;stroke-opacity:1"
       transform="matrix(0.90813382,0,0,0.90813382,-842.97932,-276.6947)"
       clip-path="url(#clipPath35)" />
    <g
       id="g35" />
    <text
       id="text35"
       xml:space="preserve"
       transform="matrix(0.90813382,0,0,0.90813382,204.24085,57.044489)"
       clip-path="url(#clipPath36)"><tspan
         style="font-variant:normal;font-weight:normal;font-size:12px;font-family:Arial;writing-mode:lr-tb;fill:#000000;fill-opacity:1;fill-rule:nonzero;stroke:none"
         x="0 8.6660156 15.339844 22.013672"
         y="0"
         sodipodi:role="line"
         id="tspan35">Real</tspan></text>
    <g
       id="g36" />
    <text
       id="text36"
       xml:space="preserve"
       transform="matrix(0.90813382,0,0,0.90813382,197.88391,69.758362)"
       clip-path="url(#clipPath37)"><tspan
         style="font-variant:normal;font-weight:normal;font-size:12px;font-family:Arial;writing-mode:lr-tb;fill:#000000;fill-opacity:1;fill-rule:nonzero;stroke:none"
         x="0 2.6660156 12.662109 19.335938 26.009766 32.683594"
         y="0"
         sodipodi:role="line"
         id="tspan36">images</tspan></text>
    <g
       id="g37" />
    <text
       id="text37"
       xml:space="preserve"
       transform="matrix(0.90813382,0,0,0.90813382,197.57174,83.380369)"
       clip-path="url(#clipPath38)"><tspan
         style="font-variant:normal;font-weight:normal;font-size:12px;font-family:Arial;writing-mode:lr-tb;fill:#000000;fill-opacity:1;fill-rule:nonzero;stroke:none"
         x="0 6.6738281 13.347656 16.681641 23.355469 29.355469 36.029297"
         y="0"
         sodipodi:role="line"
         id="tspan37">dataset</tspan></text>
    <path
       id="path39"
       d="m 1136,406 h 60 v 30 h -60 z"
       style="fill:#000000;fill-opacity:1;fill-rule:nonzero;stroke:#000000;stroke-width:1;stroke-linecap:butt;stroke-linejoin:miter;stroke-miterlimit:10;stroke-dasharray:none;stroke-opacity:1"
       transform="matrix(0.90813382,0,0,0.90813382,-842.97932,-276.6947)"
       clip-path="url(#clipPath40)" />
    <g
       id="g40" />
    <text
       id="text40"
       xml:space="preserve"
       transform="matrix(0.90813382,0,0,0.90813382,198.47988,102.45118)"
       clip-path="url(#clipPath41)"><tspan
         style="font-variant:normal;font-weight:normal;font-size:12px;font-family:Arial;writing-mode:lr-tb;fill:#ffffff;fill-opacity:1;fill-rule:nonzero;stroke:none"
         x="0 8.0039062 12 14.666016 20.666016 27.339844 30.673828"
         y="0"
         sodipodi:role="line"
         id="tspan40">Private</tspan></text>
    <g
       id="g41" />
    <text
       id="text41"
       xml:space="preserve"
       transform="matrix(0.90813382,0,0,0.90813382,204.22667,116.07319)"
       clip-path="url(#clipPath42)"><tspan
         style="font-variant:normal;font-weight:normal;font-size:12px;font-family:Arial;writing-mode:lr-tb;fill:#ffffff;fill-opacity:1;fill-rule:nonzero;stroke:none"
         x="0 9.3339844 16.007812 18.673828"
         y="0"
         sodipodi:role="line"
         id="tspan41">Only</tspan></text>
    <path
       id="path43"
       d="m 1293.5,480 h 63 c 0.8864,0 1.7643,0.0865 2.6335,0.2594 0.8694,0.17294 1.7136,0.42899 2.5325,0.76819 0.819,0.33923 1.5969,0.75509 2.334,1.24759 0.7371,0.49243 1.4191,1.05206 2.0459,1.67886 0.6267,0.62677 1.1863,1.30869 1.6787,2.04572 0.4926,0.73703 0.9083,1.51504 1.2476,2.33398 0.3392,0.81894 0.5953,1.66312 0.7683,2.5325 0.173,0.86942 0.2595,1.74732 0.2595,2.63376 v 63 c 0,0.88641 -0.086,1.76428 -0.2595,2.63361 -0.173,0.86944 -0.4291,1.71362 -0.7683,2.53253 -0.3393,0.81891 -0.755,1.59692 -1.2476,2.33398 -0.4924,0.737 -1.052,1.41895 -1.6787,2.04584 -0.6268,0.62677 -1.3088,1.1864 -2.0459,1.67889 -0.7371,0.49244 -1.515,0.90827 -2.334,1.24744 -0.8189,0.33917 -1.6631,0.59528 -2.5325,0.76825 C 1358.2643,569.91351 1357.3864,570 1356.5,570 h -63 c -0.8865,0 -1.7644,-0.0865 -2.6339,-0.25946 -0.8693,-0.17297 -1.7135,-0.42908 -2.5325,-0.76825 -0.8189,-0.33917 -1.597,-0.755 -2.334,-1.2475 -0.737,-0.49249 -1.4189,-1.05206 -2.0456,-1.67883 -0.627,-0.62689 -1.1867,-1.30884 -1.6791,-2.0459 -0.4924,-0.737 -0.9082,-1.51501 -1.2474,-2.33392 -0.3393,-0.81891 -0.5952,-1.66309 -0.7682,-2.53253 -0.173,-0.86933 -0.2594,-1.7472 -0.2593,-2.63361 v -63 c -10e-5,-0.88644 0.086,-1.76434 0.2593,-2.63376 0.173,-0.86938 0.4289,-1.71356 0.7682,-2.5325 0.3392,-0.81894 0.755,-1.59692 1.2474,-2.33395 0.4924,-0.73706 1.0521,-1.41898 1.6791,-2.04575 0.6267,-0.6268 1.3086,-1.18643 2.0455,-1.67889 0.7371,-0.49247 1.5152,-0.90833 2.3341,-1.24756 0.819,-0.3392 1.6632,-0.59525 2.5325,-0.76819 0.8695,-0.17294 1.7474,-0.2594 2.6339,-0.2594 z"
       style="fill:#ffffff;fill-opacity:1;fill-rule:nonzero;stroke:#000000;stroke-width:1;stroke-linecap:butt;stroke-linejoin:miter;stroke-miterlimit:10;stroke-dasharray:none;stroke-opacity:1"
       transform="matrix(0.90813382,0,0,0.90813382,-842.97932,-276.6947)"
       clip-path="url(#clipPath44)" />
    <g
       id="g44" />
    <text
       id="text44"
       xml:space="preserve"
       transform="matrix(0.90813382,0,0,0.90813382,332.88368,196.8971)"
       clip-path="url(#clipPath45)"><tspan
         style="font-variant:normal;font-weight:normal;font-size:12px;font-family:Arial;writing-mode:lr-tb;fill:#000000;fill-opacity:1;fill-rule:nonzero;stroke:none"
         x="0 8.0039062 14.677734 21.351562 28.025391 34.025391 44.021484 46.6875 52.6875"
         y="0"
         sodipodi:role="line"
         id="tspan44">Anonymize</tspan></text>
    <g
       id="g45" />
    <text
       id="text45"
       xml:space="preserve"
       transform="matrix(0.90813382,0,0,0.90813382,342.27719,210.5191)"
       clip-path="url(#clipPath46)"><tspan
         style="font-variant:normal;font-weight:normal;font-size:12px;font-family:Arial;writing-mode:lr-tb;fill:#000000;fill-opacity:1;fill-rule:nonzero;stroke:none"
         x="0 2.6660156 12.662109 19.335938 26.009766 32.683594"
         y="0"
         sodipodi:role="line"
         id="tspan45">images</tspan></text>
    <g
       id="g46" />
    <text
       id="text46"
       xml:space="preserve"
       transform="matrix(0.90813382,0,0,0.90813382,318.33936,257.74206)"
       clip-path="url(#clipPath47)"><tspan
         style="font-variant:normal;font-weight:normal;font-size:12px;font-family:Arial;writing-mode:lr-tb;fill:#000000;fill-opacity:1;fill-rule:nonzero;stroke:none"
         x="0 8.0039062 14.677734 21.351562 28.025391 34.025391 44.021484 46.6875 52.6875 59.361328 62.695312 65.361328 72.035156 78.035156 84.708984"
         y="0"
         sodipodi:role="line"
         id="tspan46">Anonymize.ipynb</tspan></text>
    <path
       id="path48"
       d="m 1196,365 h 42 v 160 h 35.63"
       style="fill:none;stroke:#000000;stroke-width:1;stroke-linecap:butt;stroke-linejoin:miter;stroke-miterlimit:10;stroke-dasharray:none;stroke-opacity:1"
       transform="matrix(0.90813382,0,0,0.90813382,-842.97932,-276.6947)"
       clip-path="url(#clipPath49)" />
    <path
       id="path50"
       d="m 1278.88,525 -7,3.5 1.75,-3.5 -1.75,-3.5 z"
       style="fill:#000000;fill-opacity:1;fill-rule:nonzero;stroke:#000000;stroke-width:1;stroke-linecap:butt;stroke-linejoin:miter;stroke-miterlimit:10;stroke-dasharray:none;stroke-opacity:1"
       transform="matrix(0.90813382,0,0,0.90813382,-842.97932,-276.6947)"
       clip-path="url(#clipPath51)" />
    <path
       id="path52"
       d="m 1370,525 h 73.63"
       style="fill:none;stroke:#000000;stroke-width:1;stroke-linecap:butt;stroke-linejoin:miter;stroke-miterlimit:10;stroke-dasharray:none;stroke-opacity:1"
       transform="matrix(0.90813382,0,0,0.90813382,-842.97932,-276.6947)"
       clip-path="url(#clipPath53)" />
    <path
       id="path54"
       d="m 1448.88,525 -7,3.5 1.75,-3.5 -1.75,-3.5 z"
       style="fill:#000000;fill-opacity:1;fill-rule:nonzero;stroke:#000000;stroke-width:1;stroke-linecap:butt;stroke-linejoin:miter;stroke-miterlimit:10;stroke-dasharray:none;stroke-opacity:1"
       transform="matrix(0.90813382,0,0,0.90813382,-842.97932,-276.6947)"
       clip-path="url(#clipPath55)" />
    <path
       id="path56"
       d="m 1450,500 c 0,-8.28 17.91,-15 40,-15 10.61,0 20.78,1.57999 28.28,4.39001 7.51,2.81998 11.72,6.62998 11.72,10.60999 v 50 c 0,8.28003 -17.91,15 -40,15 -22.09,0 -40,-6.71997 -40,-15 z"
       style="fill:#ffffff;fill-opacity:1;fill-rule:nonzero;stroke:#000000;stroke-width:1;stroke-linecap:butt;stroke-linejoin:miter;stroke-miterlimit:10;stroke-dasharray:none;stroke-opacity:1"
       transform="matrix(0.90813382,0,0,0.90813382,-842.97932,-276.6947)"
       clip-path="url(#clipPath57)" />
    <path
       id="path58"
       d="m 1530,500 c 0,8.28 -17.91,15 -40,15 -22.09,0 -40,-6.72 -40,-15"
       style="fill:none;stroke:#000000;stroke-width:1;stroke-linecap:butt;stroke-linejoin:miter;stroke-miterlimit:10;stroke-dasharray:none;stroke-opacity:1"
       transform="matrix(0.90813382,0,0,0.90813382,-842.97932,-276.6947)"
       clip-path="url(#clipPath59)" />
    <g
       id="g59" />
    <text
       id="text59"
       xml:space="preserve"
       transform="matrix(0.90813382,0,0,0.90813382,492.41726,202.3459)"
       clip-path="url(#clipPath60)"><tspan
         style="font-variant:normal;font-weight:normal;font-size:12px;font-family:Arial;writing-mode:lr-tb;fill:#000000;fill-opacity:1;fill-rule:nonzero;stroke:none"
         x="0 9.3339844 17.337891 25.341797 29.337891"
         y="0"
         sodipodi:role="line"
         id="tspan59">OAK-D</tspan></text>
    <g
       id="g60">
      <g
         id="g61" />
    </g>
    <text
       id="text61"
       xml:space="preserve"
       transform="matrix(0.90813382,0,0,0.90813382,486.05145,215.05977)"
       clip-path="url(#clipPath61)"><tspan
         style="font-variant:normal;font-weight:normal;font-size:12px;font-family:Arial;writing-mode:lr-tb;fill:#000000;fill-opacity:1;fill-rule:nonzero;stroke:none"
         x="0 8.6660156 15.339844 22.013672 24.679688 28.013672 36.017578 42.691406 48.691406"
         y="0"
         sodipodi:role="line"
         id="tspan61">Real Pose</tspan></text>
    <g
       id="g62" />
    <text
       id="text62"
       xml:space="preserve"
       transform="matrix(0.90813382,0,0,0.90813382,490.89897,228.68178)"
       clip-path="url(#clipPath62)"><tspan
         style="font-variant:normal;font-weight:normal;font-size:12px;font-family:Arial;writing-mode:lr-tb;fill:#000000;fill-opacity:1;fill-rule:nonzero;stroke:none"
         x="0 8.6660156 15.339844 18.673828 25.347656 31.347656 38.021484"
         y="0"
         sodipodi:role="line"
         id="tspan62">Dataset</tspan></text>
    <path
       id="path63"
       d="m 145.30099,18.875 c -0.705,-1.601999 -1.656,-2.997 -2.84599,-4.19 -1.18899,-1.187001 -2.584,-2.125 -4.188,-2.805001 -1.60401,-0.678 -3.30701,-1.02 -5.10201,-1.02 -1.848,0 -3.56399,0.342 -5.13899,1.02 -0.787,0.339 -1.529,0.74 -2.225,1.205 -0.70099,0.469 -1.357,1.003 -1.967,1.600001 -0.377,0.369999 -0.727,0.760999 -1.051,1.17 -0.363,0.457 -0.764,1.068 -0.992,1.438999 -0.281,0.455999 -0.957,1.861 -1.254,2.827999 0.041,-1.644001 0.281,-4.096001 1.254,-5.472 V 2.7680001 c 0,-0.776 -0.279,-1.431 -0.84,-1.96500001 C 120.396,0.26799998 119.75,0 119.021,0 118.244,0 117.591,0.26799998 117.052,0.80300003 116.521,1.337 116.251,1.9920001 116.251,2.7680001 V 13.337 c -1.117,-0.778 -2.322,-1.386 -3.605,-1.824 -1.28501,-0.436 -2.637,-0.654001 -4.045,-0.654001 -1.79901,0 -3.496,0.342 -5.1,1.020001 -1.605,0.679 -3,1.618 -4.195,2.805 -1.185997,1.194 -2.139,2.587999 -2.835999,4.190001 -0.053,0.12 -0.1,0.242 -0.150001,0.364 -0.047,-0.122 -0.094,-0.244 -0.146004,-0.364 -0.705002,-1.602 -1.655998,-2.997 -2.846001,-4.190001 -1.189003,-1.187 -2.585998,-2.125 -4.188003,-2.805 -1.603997,-0.678001 -3.306999,-1.020001 -5.101998,-1.020001 -1.847999,0 -3.564003,0.342 -5.139,1.020001 -1.583999,0.679 -2.978996,1.618 -4.191001,2.805 -1.212998,1.194 -2.164002,2.587999 -2.842003,4.190001 -0.049,0.114999 -0.092,0.229999 -0.137001,0.343999 -0.047,-0.114 -0.092,-0.229 -0.140999,-0.343999 -0.700997,-1.602 -1.650002,-2.997 -2.840004,-4.190001 -1.191002,-1.187 -2.587998,-2.125 -4.193001,-2.805 -1.604,-0.678001 -3.300999,-1.020001 -5.104,-1.020001 -1.841999,0 -3.556999,0.342 -5.137001,1.020001 -1.577999,0.679 -2.977001,1.618 -4.186001,2.805 -1.221001,1.194 -2.166,2.587999 -2.847999,4.190001 -0.043,0.106 -0.082,0.214 -0.125,0.319999 -0.043,-0.106001 -0.084,-0.214 -0.131001,-0.319999 -0.707001,-1.602 -1.655998,-2.997 -2.848,-4.190001 -1.187999,-1.187 -2.582,-2.125 -4.184001,-2.805 -1.605,-0.678001 -3.308999,-1.020001 -5.104001,-1.020001 -1.849998,0 -3.563999,0.342 -5.137001,1.020001 -1.466999,0.628 -2.764,1.488 -3.909999,2.552 V 13.99 c 0,-1.557 -1.262,-2.822001 -2.82,-2.822001 H 3.2460001 C 1.689,11.167999 0.42600012,12.433 0.42600012,13.99 c 0,1.559 1.26399998,2.819999 2.81999998,2.819999 H 18.787001 l -18.23000096,24.546 C 0.19499999,41.842999 0,42.432999 0,43.037998 v 1.841 c 0,1.557998 1.2639999,2.821998 2.822,2.821998 h 21.047001 c 1.488001,0 2.705,-1.152999 2.812001,-2.613998 0.931999,0.743 1.967001,1.363998 3.108999,1.848 1.604999,0.683998 3.299,1.020999 5.102001,1.020999 2.723,0 5.150002,-0.726001 7.286999,-2.187 1.727001,-1.175998 3.091999,-2.639 4.083999,-4.389 v 3.805001 c 0,0.777999 0.264,1.436 0.805001,1.967998 0.530998,0.536999 1.188999,0.803001 1.966999,0.803001 0.729999,0 1.368999,-0.265998 1.93,-0.803001 0.561001,-0.532001 0.838001,-1.188999 0.838001,-1.967998 V 35.306 h -0.01 c 0,-0.002 0.01,-0.013 0.01,-0.013 0,0 -6.137001,0 -6.911998,0 -0.580002,0 -1.109002,0.154 -1.565998,0.472 -0.463002,0.316002 -0.793,0.744 -0.981999,1.275002 l -0.452999,0.93 c -0.631,1.365002 -1.566002,2.443001 -2.808998,3.244 -1.237999,0.803001 -2.633,1.201 -4.188,1.201 -1.022999,0 -2.004001,-0.191002 -2.955,-0.578999 -0.941,-0.389999 -1.757999,-0.935001 -2.439001,-1.639999 -0.681999,-0.702999 -1.226999,-1.52 -1.641001,-2.443001 -0.409999,-0.924 -0.617,-1.893001 -0.617,-2.916 v -2.476002 h 17.715002 1.308998 5.539001 v -8.385 c 0,-1.015 0.191002,-1.99 0.582001,-2.912001 0.389,-0.922001 0.936001,-1.74 1.645001,-2.444 0.699001,-0.702999 1.514,-1.249001 2.440998,-1.641001 0.917999,-0.388 1.919998,-0.580999 2.981998,-0.580999 1.022999,0 2.009999,0.193001 2.954998,0.580999 0.945,0.393 1.762001,0.938 2.439003,1.641001 0.681999,0.704 1.224999,1.521 1.640999,2.444 0.412003,0.922001 0.621002,1.896 0.621002,2.912001 v 21.207998 c 0,0.778 0.265999,1.436001 0.799004,1.967999 0.535004,0.536998 1.191002,0.803001 1.971001,0.803001 0.728996,0 1.371002,-0.265999 1.933998,-0.803001 0.553001,-0.532002 0.833999,-1.189 0.833999,-1.967999 v -3.803001 c 0.587998,1.009998 1.282997,1.931999 2.099999,2.749 1.189003,1.188999 2.585998,2.124001 4.191002,2.804001 1.601997,0.683998 3.303001,1.021 5.101997,1.021 1.794998,0 3.498001,-0.337002 5.101997,-1.021 1.601998,-0.68 3.010003,-1.613998 4.226998,-2.804001 1.210998,-1.189998 2.162002,-2.589 2.842003,-4.188999 0.037,-0.095 0.074,-0.189999 0.109001,-0.285999 0.039,0.096 0.074,0.191002 0.112999,0.285999 0.678001,1.601002 1.625,2.999001 2.842003,4.188999 1.213001,1.188999 2.607001,2.124001 4.189001,2.804001 1.574,0.683998 3.293,1.021 5.139,1.021 1.795,0 3.5,-0.337002 5.10501,-1.021 1.59999,-0.68 2.994,-1.613998 4.18399,-2.804001 1.19101,-1.189998 2.141,-2.589 2.848,-4.188999 0.051,-0.119999 0.098,-0.238998 0.14601,-0.360001 0.049,0.120999 0.094,0.240002 0.146,0.360001 0.703,1.601002 1.652,2.999001 2.842,4.188999 1.18901,1.188999 2.586,2.124001 4.191,2.804001 1.60401,0.683998 3.303,1.021 5.10201,1.021 1.795,0 3.498,-0.337002 5.102,-1.021 1.60401,-0.68 3.01,-1.613998 4.22701,-2.804001 1.211,-1.189998 2.16,-2.589 2.84199,-4.188999 0.678,-1.605999 1.02001,-3.306 1.02001,-5.104 V 23.976998 C 146.355,22.181999 146.002,20.479 145.30099,18.875 Z M 7.0640001,42.060001 21.822001,22.186001 c -0.078,0.587 -0.121001,1.184 -0.121001,1.791 v 10.860001 c 0,1.799 0.350001,3.498001 1.059,5.104 0.327999,0.751999 0.719,1.458 1.156,2.118999 -0.016,0 -0.031,-9.99e-4 -0.047,-9.99e-4 H 7.0640011 Z M 42.541,26.816999 H 27.24 V 23.976 c 0,-1.015 0.188999,-1.99 0.58,-2.912001 0.391,-0.922001 0.936001,-1.74 1.645,-2.444 0.697001,-0.702999 1.516001,-1.249001 2.438,-1.641001 0.922001,-0.388 1.919998,-0.580999 2.990002,-0.580999 1.02,0 2.001998,0.193001 2.949001,0.580999 0.949001,0.393 1.764,0.938 2.441002,1.641001 0.681999,0.704 1.224998,1.521 1.640999,2.444 0.414001,0.922001 0.617,1.896 0.617,2.912001 v 2.840999 z m 49.147004,8.020003 c 0,1.022999 -0.189003,1.992 -0.582001,2.916 -0.389,0.924 -0.935997,1.740002 -1.637001,2.443001 -0.705002,0.705002 -1.523003,1.25 -2.445,1.639999 -0.919998,0.388001 -1.919998,0.578999 -2.984001,0.578999 -1.023003,0 -2.003998,-0.191002 -2.955002,-0.578999 -0.945,-0.389999 -1.758003,-0.935001 -2.439003,-1.639999 -0.681999,-0.702999 -1.228996,-1.52 -1.640999,-2.443001 -0.412002,-0.923 -0.616997,-1.893001 -0.616997,-2.916 V 23.977001 c 0,-1.014999 0.191002,-1.99 0.582001,-2.912 0.387001,-0.922001 0.933998,-1.74 1.639,-2.444001 0.700997,-0.702999 1.519997,-1.249 2.441002,-1.641 0.921997,-0.388001 1.919998,-0.581 2.989998,-0.581 1.017998,0 2.003998,0.193001 2.946999,0.581 0.950996,0.392999 1.763999,0.937999 2.443,1.641 0.680001,0.704001 1.223,1.521 1.640999,2.444001 0.412003,0.922 0.616997,1.895999 0.616997,2.912 v 10.860001 z m 24.563996,0 c 0,1.022999 -0.203,1.992 -0.617,2.916 -0.412,0.924 -0.961,1.740002 -1.641,2.443001 -0.68,0.705002 -1.49199,1.25 -2.443,1.639999 -0.943,0.388001 -1.93,0.578999 -2.949,0.578999 -1.07,0 -2.066,-0.191002 -2.98799,-0.578999 -0.92401,-0.389999 -1.74,-0.935001 -2.43901,-1.639999 -0.707,-0.702999 -1.252,-1.52 -1.643,-2.443001 -0.39099,-0.923 -0.58399,-1.893001 -0.58399,-2.916 V 23.977001 c 0,-1.014999 0.21099,-1.99 0.619,-2.912 0.416,-0.922001 0.961,-1.74 1.641,-2.444001 0.682,-0.702999 1.496,-1.249 2.439,-1.641 0.951,-0.388001 1.934,-0.581 2.955,-0.581 1.068,0 2.062,0.193001 2.986,0.581 0.92601,0.392999 1.738,0.937999 2.443,1.641 0.70301,0.704001 1.252,1.521 1.641,2.444001 0.389,0.922 0.58,1.895999 0.58,2.912 v 10.860001 z m 24.56399,0 c 0,1.022999 -0.19299,1.992 -0.58,2.916 -0.393,0.924 -0.93899,1.740002 -1.641,2.443001 -0.70501,0.705002 -1.523,1.25 -2.443,1.639999 -0.92199,0.388001 -1.92,0.578999 -2.98601,0.578999 -1.02099,0 -2.00399,-0.191002 -2.955,-0.578999 -0.94299,-0.389999 -1.75799,-0.935001 -2.438,-1.639999 -0.682,-0.702999 -1.23,-1.52 -1.643,-2.443001 -0.41299,-0.923 -0.619,-1.893001 -0.619,-2.916 V 23.977001 c 0,-1.014999 0.193,-1.99 0.584,-2.912 0.387,-0.922001 0.934,-1.74 1.639,-2.444001 0.703,-0.702999 1.518,-1.249 2.44099,-1.641 0.924,-0.388001 1.92,-0.581 2.99001,-0.581 1.02,0 2.004,0.193001 2.949,0.581 0.94901,0.392999 1.76401,0.937999 2.441,1.641 0.682,0.704001 1.225,1.521 1.643,2.444001 0.412,0.922 0.61701,1.895999 0.61701,2.912 v 10.860001 z"
       style="fill:#191919;fill-opacity:1;fill-rule:nonzero;stroke:none"
       transform="matrix(0.34748042,0,0,0.34862036,484.25826,236.85528)"
       clip-path="url(#clipPath64)" />
  </g>
</svg>
